<svg width="126" height="32" viewBox="0 0 126 32" fill="none" xmlns="http://www.w3.org/2000/svg">
<g clip-path="url(#clip0_1_1191)">
<path d="M109.138 26.1578C108.866 25.9058 108.73 25.5925 108.73 25.2179C108.73 24.8432 108.866 24.5299 109.138 24.2779C109.409 24.0267 109.756 23.8999 110.178 23.8999C110.599 23.8999 110.927 24.0259 111.192 24.2779C111.459 24.5299 111.591 24.8432 111.591 25.2179C111.591 25.5925 111.459 25.9067 111.192 26.1578C110.926 26.4098 110.588 26.535 110.178 26.535C109.768 26.535 109.409 26.409 109.138 26.1578Z" fill="url(#paint0_linear_1_1191)"/>
<path d="M112.748 19.5458C113.12 18.8495 113.625 18.3136 114.263 17.9389C114.901 17.5643 115.614 17.377 116.401 17.377C117.089 17.377 117.69 17.5114 118.206 17.7785C118.722 18.0464 119.135 18.3841 119.446 18.7907V17.5214H121.792V26.4238H119.446V25.1226C119.146 25.5401 118.733 25.8862 118.206 26.1592C117.679 26.4322 117.072 26.5691 116.384 26.5691C115.607 26.5691 114.901 26.3759 114.262 25.9903C113.624 25.6048 113.12 25.0613 112.748 24.359C112.375 23.6576 112.19 22.8512 112.19 21.9407C112.19 21.0301 112.375 20.243 112.748 19.5467L112.748 19.5458ZM119.113 20.5664C118.891 20.1758 118.591 19.876 118.214 19.6668C117.837 19.4576 117.432 19.3535 117 19.3535C116.567 19.3535 116.167 19.4551 115.802 19.6584C115.436 19.8617 115.139 20.159 114.911 20.5505C114.684 20.9411 114.57 21.4048 114.57 21.9407C114.57 22.4766 114.684 22.9453 114.911 23.3468C115.138 23.7484 115.438 24.0566 115.809 24.2708C116.181 24.485 116.577 24.5926 117 24.5926C117.422 24.5926 117.837 24.4884 118.214 24.2792C118.591 24.0701 118.891 23.7702 119.113 23.3796C119.335 22.989 119.446 22.5203 119.446 21.9734C119.446 21.4266 119.335 20.9587 119.113 20.5673V20.5664Z" fill="url(#paint1_linear_1_1191)"/>
<path d="M123.547 16.0831C123.275 15.8311 123.14 15.5178 123.14 15.1432C123.14 14.7685 123.276 14.4552 123.547 14.2032C123.818 13.952 124.159 13.8252 124.57 13.8252C124.981 13.8252 125.322 13.9512 125.593 14.2032C125.865 14.4552 126.001 14.7685 126.001 15.1432C126.001 15.5178 125.865 15.832 125.593 16.0831C125.321 16.3351 124.98 16.4603 124.57 16.4603C124.16 16.4603 123.818 16.3343 123.547 16.0831Z" fill="#FF9E1F"/>
<path d="M125.719 17.521H123.39V26.4233H125.719V17.521Z" fill="url(#paint2_linear_1_1191)"/>
<path d="M53.5013 26.5278L48.3228 20.0278V26.5278H44.4663V6.146H48.3228V17.7422L53.4459 11.2692H58.459L51.7382 18.9266L58.5136 26.5286H53.5005L53.5013 26.5278Z" fill="white"/>
<path d="M59.5189 14.7392C60.1338 13.5455 60.9696 12.6283 62.0255 11.9848C63.0814 11.3422 64.2607 11.0205 65.5653 11.0205C66.7035 11.0205 67.6997 11.2507 68.554 11.7093C69.4074 12.1688 70.092 12.7467 70.6061 13.4447V11.2691H74.4894V26.5286H70.6061V24.2975C70.1105 25.0141 69.4259 25.6063 68.554 26.0741C67.6812 26.542 66.6766 26.7764 65.5375 26.7764C64.2523 26.7764 63.0814 26.4463 62.0255 25.7852C60.9696 25.1241 60.1338 24.1925 59.5189 22.9897C58.9032 21.7868 58.5966 20.405 58.5966 18.8443C58.5966 17.2835 58.9041 15.9337 59.5189 14.74V14.7392ZM70.0542 16.4881C69.6863 15.8177 69.1907 15.3037 68.5666 14.9458C67.9425 14.588 67.2721 14.4091 66.5556 14.4091C65.8391 14.4091 65.178 14.5838 64.5724 14.9324C63.9667 15.281 63.4745 15.7909 63.099 16.4612C62.7227 17.1315 62.5345 17.9261 62.5345 18.8434C62.5345 19.7607 62.7227 20.5646 63.099 21.2534C63.4753 21.9422 63.9709 22.4697 64.5867 22.8368C65.2015 23.2047 65.8576 23.3878 66.5556 23.3878C67.2537 23.3878 67.9416 23.2089 68.5666 22.8511C69.1907 22.4932 69.6863 21.9791 70.0542 21.3088C70.4213 20.6385 70.6053 19.8355 70.6053 18.8989C70.6053 17.9623 70.4213 17.1592 70.0542 16.4889V16.4881Z" fill="white"/>
<path d="M81.7887 14.436V21.818C81.7887 22.332 81.913 22.7042 82.1608 22.9335C82.4086 23.1636 82.8261 23.2779 83.4141 23.2779H85.2041V26.5278H82.7799C79.5299 26.5278 77.9045 24.9486 77.9045 21.7902V14.436H76.0868V11.2684H77.9045V7.49512H81.7878V11.2684H85.2033V14.436H81.7878H81.7887Z" fill="white"/>
<path d="M101.095 20.0557H89.94C90.0316 21.1578 90.4171 22.0204 91.0967 22.6446C91.7754 23.2687 92.6112 23.5812 93.6032 23.5812C95.0354 23.5812 96.0544 22.9663 96.6608 21.7357H100.82C100.379 23.2048 99.5345 24.4119 98.2854 25.3578C97.0363 26.3036 95.5033 26.7765 93.6856 26.7765C92.2164 26.7765 90.8993 26.4506 89.7334 25.7988C88.5674 25.1469 87.6577 24.2246 87.0067 23.031C86.3549 21.8373 86.029 20.4606 86.029 18.899C86.029 17.3374 86.3498 15.9338 86.9933 14.7402C87.6359 13.5465 88.5355 12.6292 89.6922 11.9858C90.8489 11.3432 92.1803 11.0215 93.6864 11.0215C95.1925 11.0215 96.4357 11.334 97.584 11.9581C98.7314 12.5822 99.6218 13.4684 100.256 14.6158C100.889 15.7633 101.206 17.0812 101.206 18.568C101.206 19.1191 101.169 19.6147 101.096 20.0557H101.095ZM97.2119 17.466C97.1934 16.4748 96.8356 15.6801 96.1375 15.0837C95.4395 14.4873 94.586 14.1883 93.5764 14.1883C92.6213 14.1883 91.8182 14.4772 91.1664 15.056C90.5146 15.6348 90.1147 16.4378 89.9686 17.466H97.2127H97.2119Z" fill="white"/>
<path d="M108.849 11.7371C109.648 11.2785 110.561 11.0483 111.59 11.0483V15.0971H110.571C109.359 15.0971 108.446 15.3819 107.83 15.9506C107.215 16.5201 106.907 17.5113 106.907 18.925V26.527H103.051V11.2676H106.907V13.6364C107.403 12.8283 108.051 12.1949 108.849 11.7355V11.7371Z" fill="white"/>
<path d="M37.883 19.5692C37.9695 19.2584 38.0174 18.9316 38.0174 18.5939C38.0174 16.7904 36.6969 15.2961 34.9707 15.0231C33.6746 9.07084 29.0151 4.35929 23.0906 2.98841C23.0789 2.92121 23.0654 2.85317 23.0495 2.78597C22.5908 0.843046 20.6437 -0.360674 18.6999 0.0979657C17.2518 0.439846 16.2152 1.60913 15.9708 2.98673C10.1126 4.33913 5.49094 8.95492 4.13098 14.8089C2.38042 15.0609 1.03558 16.5662 1.03558 18.3864C1.03558 18.7796 1.09942 19.1584 1.21534 19.5129C0.416503 20.5116 -0.000976562 21.5885 -0.000976562 22.7066C-0.000976562 25.2434 2.13346 27.5592 6.00754 29.2308C9.63298 30.7941 14.4336 31.6551 19.5257 31.6551C24.6177 31.6551 29.4175 30.7932 33.0438 29.2308C36.9187 27.5592 39.0523 25.2434 39.0523 22.7066C39.0523 21.6078 38.6508 20.5503 37.8822 19.5692H37.883ZM16.1354 4.85909C16.7545 6.55673 18.5588 7.56053 20.3606 7.13549C21.5879 6.84569 22.5194 5.96201 22.9243 4.86077C27.9651 6.12749 31.9241 10.1444 33.1068 15.218C31.7493 15.7388 30.7859 17.0534 30.7859 18.5939C30.7859 19.4675 31.0958 20.268 31.6107 20.893C29.8039 22.0824 26.7791 23.0736 22.973 23.4558C22.406 21.6717 20.5513 20.5982 18.6991 21.0358C17.4181 21.3382 16.4588 22.2874 16.085 23.4567C12.1958 23.0669 9.12142 22.0413 7.32802 20.8174C7.91098 20.1756 8.2663 19.323 8.2663 18.3873C8.2663 16.8635 7.32382 15.5615 5.9899 15.029C7.22638 10.0427 11.1534 6.10817 16.1346 4.85909H16.1354ZM32.3088 27.524C28.9093 28.9889 24.3699 29.7962 19.5265 29.7962C14.6831 29.7962 10.1437 28.9881 6.74422 27.524C3.64042 26.185 1.85878 24.4302 1.85878 22.7074C1.85878 22.1916 2.02174 21.6717 2.3317 21.1601C2.95918 21.686 3.7681 22.0026 4.65094 22.0026C4.99198 22.0026 5.32126 21.9548 5.63374 21.8666C6.41578 22.5134 7.42798 23.0997 8.65186 23.607C10.7132 24.4622 13.245 25.0443 15.996 25.3139C16.001 25.3383 16.0052 25.3618 16.0111 25.3862C16.4697 27.3291 18.4169 28.5328 20.3606 28.0742C21.7643 27.7432 22.7807 26.6352 23.0654 25.3131C25.8122 25.0434 28.3415 24.4613 30.4011 23.607C31.5309 23.1392 32.4793 22.6032 33.2336 22.0152C33.5999 22.1404 33.993 22.2093 34.4021 22.2093C35.3235 22.2093 36.1644 21.864 36.8028 21.2962C37.0598 21.7632 37.1942 22.2362 37.1942 22.7074C37.1942 24.4302 35.4134 26.1858 32.3088 27.524Z" fill="url(#paint3_linear_1_1191)"/>
</g>
<defs>
<linearGradient id="paint0_linear_1_1191" x1="110.161" y1="7.90127" x2="110.161" y2="32.5225" gradientUnits="userSpaceOnUse">
<stop stop-color="#FF811A"/>
<stop offset="1" stop-color="#FF621D"/>
</linearGradient>
<linearGradient id="paint1_linear_1_1191" x1="116.992" y1="7.90175" x2="116.992" y2="32.523" gradientUnits="userSpaceOnUse">
<stop stop-color="#FF811A"/>
<stop offset="1" stop-color="#FF621D"/>
</linearGradient>
<linearGradient id="paint2_linear_1_1191" x1="124.555" y1="13.3353" x2="124.555" y2="30.7334" gradientUnits="userSpaceOnUse">
<stop stop-color="#FF811A"/>
<stop offset="1" stop-color="#FF621D"/>
</linearGradient>
<linearGradient id="paint3_linear_1_1191" x1="29.6241" y1="7.45469" x2="13.7969" y2="29.1536" gradientUnits="userSpaceOnUse">
<stop stop-color="#FF811A"/>
<stop offset="1" stop-color="#FF621D"/>
</linearGradient>
<clipPath id="clip0_1_1191">
<rect width="126" height="31.6554" fill="white"/>
</clipPath>
</defs>
</svg>
