<?xml version="1.0" encoding="utf-8"?>
<!-- Generator: Adobe Illustrator 16.0.0, SVG Export Plug-In . SVG Version: 6.00 Build 0)  -->
<!DOCTYPE svg PUBLIC "-//W3C//DTD SVG 1.1//EN" "http://www.w3.org/Graphics/SVG/1.1/DTD/svg11.dtd">
<svg version="1.1" xmlns="http://www.w3.org/2000/svg" xmlns:xlink="http://www.w3.org/1999/xlink" x="0px" y="0px"
	 width="792.993px" height="214.103px" viewBox="0 0 792.993 214.103" enable-background="new 0 0 792.993 214.103"
	 xml:space="preserve">
<g id="Logo">
	<rect x="110.025" y="186.999" fill="#7C7C7C" width="18" height="19"/>
	
		<rect x="189.025" y="51.999" transform="matrix(0.8572 -0.515 0.515 0.8572 -3.39 110.7742)" fill="#7C7C7C" width="18" height="19"/>
	
		<rect x="32.026" y="51.999" transform="matrix(0.515 -0.8572 0.8572 0.515 -32.819 64.9902)" fill="#7C7C7C" width="18" height="19"/>
	<circle fill="#7C7C7C" cx="119.331" cy="106.401" r="90.128"/>
	<g id="Trace">
		<path fill="#224DAC" d="M191.853,104.103l28.631,11.905l-0.823-18.981l-41.109-24.78l-0.526-0.36V24.999l-15.832-10.504
			l-4.584,30.667c0,0-13.584-6.75-28.584-6.75V5.999h-9h-1h-9v32.413c-15,0-29.153,6.75-29.153,6.75l-4.747-30.667l-16.1,10.504
			v47.262L18.941,97.026l-0.823,18.981l28.631-11.905c0,0,1.232,15.119,8.976,27.965l-27.76,16.733l10.325,17.128l27.76-16.732
			c7.744,12.848,20.831,21.484,20.831,21.484l-23.813,19.896l17.308,8.366l38.926-23.464l38.926,23.464l17.308-8.366l-23.813-19.896
			c0,0,13.087-8.637,20.831-21.484l27.76,16.732l10.325-17.128l-27.76-16.733C190.62,119.222,191.853,104.103,191.853,104.103z"/>
	</g>
	<circle fill="#FFFFFF" cx="119.898" cy="106.948" r="52.548"/>
	<circle fill="#D21C19" cx="119.52" cy="106.948" r="46.815"/>
	<circle fill="#FFFFFF" cx="119.709" cy="106.909" r="30.49"/>
	<rect x="110.025" y="60.999" fill="#D21C19" width="19" height="37"/>
	<rect x="129.025" y="60.999" fill="#FFFFFF" width="4" height="37"/>
	<rect x="106.025" y="60.999" fill="#FFFFFF" width="4" height="37"/>
	<rect x="106.025" y="60.999" fill="#FFFFFF" width="4" height="37"/>
</g>
<g id="RidgeTech" fill="#fff">
	<path fill-rule="evenodd" clip-rule="evenodd" d="M722.086,65.993c6.693-4.066,12.994-5.959,20.316-4.812
		c6.73,1.054,11.396,4.993,12.127,13.787c0.842,10.085-2.477,19.708-3.816,29.554c-0.58,4.265-1.75,8.457-2.207,12.73
		c-0.223,2.063-0.961,2.313-2.674,2.276c-4.24-0.091-8.484-0.029-12.93-0.029c2.043-12.457,4.205-24.72,6-37.035
		c0.676-4.635-0.822-9.238-3.871-10.574c-3.449-1.512-7.234-0.695-10.947,2.876c-4.447,4.28-5.387,10.021-6.412,15.653
		c-1.627,8.914-3.051,17.867-4.463,26.818c-0.262,1.643-0.998,2.278-2.57,2.269c-3.809-0.025-7.621-0.066-11.428,0.015
		c-2.059,0.043-1.904-0.935-1.627-2.483c3.488-19.558,6.904-39.13,10.352-58.695c1.15-6.518,2.391-13.022,3.488-19.548
		c0.344-2.051,1.141-3.046,3.402-2.931c3.941,0.201,8.955-1.295,11.533,0.608c2.361,1.744-0.461,6.77-0.934,10.341
		C724.594,53.052,723.291,59.229,722.086,65.993z"/>
	<path fill-rule="evenodd" clip-rule="evenodd" d="M561.773,39.442c8.643,0,17.295,0.191,25.928-0.094
		c3.461-0.114,3.615,1.493,3.002,3.875c-0.291,1.116-0.742,2.158-0.748,3.355c-0.012,2.455-1.084,3.556-3.762,3.452
		c-5.119-0.2-10.258,0.052-15.379-0.104c-2.607-0.079-3.363,0.878-3.803,3.447c-3.025,17.725-6.289,35.411-9.459,53.112
		c-0.254,1.422-0.275,2.888-0.535,4.311c-0.512,2.812-0.234,7.047-1.895,8.061c-2.371,1.451-6.188,0.546-9.387,0.642
		c-0.441,0.012-0.906-0.092-1.316,0.015c-4.617,1.197-4.176-1.775-3.67-4.567c3.734-20.646,7.52-41.282,11.285-61.922
		c0.359-1.986,0.225-3.246-2.51-3.124c-5.41,0.241-10.842-0.004-16.26,0.108c-2.059,0.044-2.453-0.647-2.092-2.56
		c1.506-7.999,1.461-8.006,9.941-8.006C548,39.442,554.887,39.442,561.773,39.442z"/>
	<path fill-rule="evenodd" clip-rule="evenodd" d="M671.162,120.563c-2.469-0.162-5.016,0.012-7.395-0.542
		c-14.633-3.408-20.691-14.777-16.365-31.156c3.566-13.501,11.539-23.067,25.566-26.654c7.082-1.811,14.131-1.963,21.285-0.035
		c2.938,0.791,3.27,1.763,2.041,4.339c-2.928,6.135-2.922,6.481-9.49,4.528c-11.783-3.504-20.684,7.125-23.645,16.615
		c-1.379,4.425-1.785,9.088-0.234,13.723c2.475,7.391,8.914,11.011,16.377,9.048c0.689-0.182,1.355-0.465,2.049-0.628
		c2.152-0.505,4.953-2.676,6.178,0.563c1.67,4.412-0.049,7.356-3.951,8.567C679.529,120.188,675.395,120.649,671.162,120.563z"/>
	<path fill-rule="evenodd" clip-rule="evenodd" d="M329.299,62.191c-2.639,15.315-5.201,30.193-7.766,45.072
		c-0.587,3.403-1.238,6.797-1.749,10.214c-0.262,1.744-1.331,2.052-2.794,2.03c-2.053-0.032-4.105-0.008-6.159-0.008
		c-7.352,0-7.155,0.038-5.837-6.96c2.988-15.857,5.77-31.754,8.608-47.639c0.214-1.196-0.417-2.753,1.766-2.726
		C320.019,62.23,324.669,62.191,329.299,62.191z"/>
	<path fill-rule="evenodd" clip-rule="evenodd" fill="#fff" d="M298.484,174.457l9.542-13.662l3.313-0.122
		c-1.886,6.963-5.875,22.388-5.875,22.388h-4l2.271-10.062l-5.55,7.471l-1.846-0.158c0,0-0.931-6.046-1.375-8.502
		c0,0-2.57,8.275-3.313,11.251h-3.938c1.482-5.735,4.295-16.476,5.938-22.169h4.208L298.484,174.457z"/>
	<path fill-rule="evenodd" clip-rule="evenodd" fill="#fff" d="M723.359,176.424l4.104-15.418h3.719
		c0,0-4.618,16.536-6.177,22.095l-3.479-0.008l-3.906-14.625l-3.656,14.781h-4.031l5.746-22.164l3.935,0.008L723.359,176.424z"/>
	<path fill-rule="evenodd" clip-rule="evenodd" d="M323.437,52.751c-5.763,0.012-7.287-1.163-7.288-5.615
		c-0.002-5.199,3.243-7.827,9.675-7.833c5.7-0.005,7.261,1.197,7.288,5.614C333.142,50.078,329.857,52.738,323.437,52.751z"/>
	<path fill-rule="evenodd" clip-rule="evenodd" fill="#fff" d="M699.377,164.035"/>
	<path fill-rule="evenodd" clip-rule="evenodd" fill="#fff" d="M681.16,175.735c0.396-1.392,0.795-2.781,1.182-4.175"/>
	<path fill-rule="evenodd" clip-rule="evenodd" fill="#fff" d="M608.019,181.003l7.216,0.075l5.29-20.129l3.334,0.053
		c-1.727,6.239-5.583,22.224-5.583,22.224c-2.918-0.132-14.708-0.223-14.708-0.223s3.888-16.368,5.458-22.054l3.583,0.053
		L608.019,181.003z"/>
	<path fill-rule="evenodd" clip-rule="evenodd" fill="#fff" d="M248.072,170.113c0,0,4.474,4.272,5.203,5.218l-0.458,6.917
		l-0.792,0.983l-9.713-0.059l-3.695,0.059l1.125-7.232l4.083,0.25l-1.425,5.096l6.958,0.069c0.327-1.582,0.875-4.625-0.78-6.15
		c-1.614-1.487-4.66-4.639-4.66-4.639c-3.177-2.239-0.052-8.834-0.052-8.834s0.517-0.685,2.625-0.73
		c1.651-0.035,8.77-0.063,10.667,0.045l-0.792,6.977l-3.583,0.125l0.958-5.333l-6.484-0.008
		C246.937,163.148,245.61,168.537,248.072,170.113"/>
	<path fill-rule="evenodd" clip-rule="evenodd" fill="#fff" d="M527.301,169.772c0,0,4.475,4.272,5.203,5.218l-0.459,6.917
		l-0.791,0.983l-9.714-0.059l-3.694,0.059l1.125-7.232l4.083,0.25l-1.425,5.096l6.958,0.069c0.327-1.582,0.875-4.625-0.78-6.15
		c-1.613-1.487-4.66-4.639-4.66-4.639c-3.177-2.239-0.051-8.834-0.051-8.834s0.516-0.685,2.625-0.73
		c1.65-0.035,8.77-0.063,10.666,0.045l-0.791,6.977l-3.584,0.125l0.959-5.333l-6.484-0.008
		C526.166,162.808,524.839,168.196,527.301,169.772"/>
	<path fill-rule="evenodd" clip-rule="evenodd" fill="#fff" d="M750.301,170.097c0,0,4.475,4.272,5.203,5.218l-0.459,6.917
		l-0.791,0.983l-9.714-0.059l-3.694,0.059l1.125-7.232l4.083,0.25l-1.425,5.096l6.958,0.069c0.327-1.582,0.875-4.625-0.78-6.15
		c-1.613-1.487-4.66-4.639-4.66-4.639c-3.177-2.239-0.051-8.834-0.051-8.834s0.516-0.685,2.625-0.73
		c1.65-0.035,8.77-0.063,10.666,0.045l-0.791,6.977l-3.584,0.125l0.959-5.333l-6.484-0.008
		C749.166,163.132,747.839,168.521,750.301,170.097"/>
	<path fill-rule="evenodd" clip-rule="evenodd" fill="#fff" d="M413.019,160.893l-0.318,1.982h-7.792l-1.958,7.916l7.241-0.021
		l-0.333,1.718l-7.658,0.054c0,0-2.289,8.921-2.667,10.455h-3.708l5.506-20.141l0.577-1.963
		C401.909,160.893,409.851,160.893,413.019,160.893z"/>
	<path fill-rule="evenodd" clip-rule="evenodd" fill="#fff" d="M459.019,160.902l-0.317,1.982h-7.792l-1.958,7.916l7.24-0.021
		l-0.332,1.718l-7.658,0.054l-2.262,8.844l7.586,0.011c0,0,0.025,1.371-0.031,1.601h-11.668l5.506-20.141l0.577-1.963
		C447.909,160.902,455.852,160.902,459.019,160.902z"/>
	<path fill-rule="evenodd" clip-rule="evenodd" fill="#fff" d="M638.315,160.949c4.641,0,14.417,0,14.417,0
		s-0.295,2.134-0.322,2.133h-5.845l-5.125,20.144h-3.708l5.415-20.229l-5.499-0.039L638.315,160.949z"/>
	<polygon fill-rule="evenodd" clip-rule="evenodd" fill="#fff" points="353.859,181.213 361.442,181.338 361.442,183.312 
		349.525,183.312 355.484,161.088 359.234,161.088 	"/>
	<polygon fill-rule="evenodd" clip-rule="evenodd" fill="#fff" points="582.113,181.127 589.697,181.252 589.697,183.226 
		577.779,183.226 583.738,161.002 587.488,161.002 	"/>
	<path fill-rule="evenodd" clip-rule="evenodd" fill="#fff" d="M386.041,160.848c-1.035,3.712-1.096,6.853-5.34,22.213
		l-4.125-0.114l5.625-22.099H386.041z"/>
	<path fill-rule="evenodd" clip-rule="evenodd" fill="#fff" d="M431.316,160.683c-1.035,3.712-1.096,6.853-5.34,22.213
		l-4.125-0.114l5.625-22.099H431.316z"/>
	<path fill-rule="evenodd" clip-rule="evenodd" fill="#fff" d="M669.797,160.639c-1.035,3.712-1.097,6.853-5.341,22.213
		l-4.125-0.114l5.625-22.099H669.797z"/>
	<path fill-rule="evenodd" clip-rule="evenodd" fill="#fff" d="M278.041,160.703c-1.035,3.712-1.096,6.853-5.34,22.213
		l-4.125-0.114l5.625-22.099H278.041z"/>
	<path fill-rule="evenodd" clip-rule="evenodd" d="M283.536,81.294c9.827,5.542,7.863,15.384,8.802,23.97
		c0.512,4.675,0.942,9.382,1.49,14.234c-4.135,0-8.24-0.158-12.326,0.054c-2.869,0.148-3.916-1.077-3.961-3.73
		c-0.096-5.671-0.976-11.289-1.021-16.988c-0.035-4.556-0.859-9.291-5.584-11.796c-2.719-1.443-5.793-1.716-8.8-1.643
		c-1.795,0.044-1.926,1.865-2.156,3.243c-1.512,9.087-2.99,18.179-4.468,27.271c-0.418,2.576-1.518,3.995-4.51,3.654
		c-2.749-0.313-5.574-0.231-8.342-0.019c-2.576,0.199-3.32-0.627-2.867-3.178c4.127-23.24,8.299-46.473,12.171-69.755
		c0.841-5.058,3.022-6.401,8.062-6.702c9.752-0.582,19.595-1.667,29.068,0.651c10.709,2.62,15.028,11.046,11.759,22.789
		C298.394,72.18,292.151,77.646,283.536,81.294z M278.094,73.571c5.462-2.764,9.449-11.266,8.046-16.894
		c-1.339-5.37-6.528-8.343-13.963-8.489c-3.935-0.078-5.624,1.51-6.096,5.329c-0.742,6.007-1.735,11.987-2.811,17.945
		c-0.907,5.024-1.026,5.002,4.821,4.99C271.499,77.284,274.772,75.252,278.094,73.571z"/>
	<path fill-rule="evenodd" clip-rule="evenodd" d="M436.488,114.81c-6.198,4.694-13.236,4.271-20.157,3.752
		c-7.322-0.55-13.335-7.017-14.515-16.514c-1.579-12.705,4.654-31.6,18.804-38.139c8.483-3.921,16.956-5.118,25.198,0.72
		c0.41,0.29,0.963,0.949,1.406,0.243c3.547-5.656,8.959-1.386,13.375-2.472c1.633-0.402,0.975,1.482,0.836,2.238
		c-2.453,13.445-5.066,26.861-7.463,40.315c-0.984,5.531-1.781,11.102-3.51,16.449c-4.213,13.046-12.805,20.536-26.82,22.151
		c-7.683,0.886-14.912,0.044-22.144-2.09c-2.435-0.719-3.287-1.891-1.851-4.743c3.405-6.767,3.205-6.913,10.088-4.119
		C426.038,139.217,436.236,127.165,436.488,114.81z M417.526,99.725c0.797,8.149,7.687,11.907,14.766,8.058
		c3.157-1.718,5.099-4.465,6.413-7.767c2.209-5.543,2.945-11.375,3.719-17.229c0.531-4.03-1.621-9.49-5.086-11.437
		c-4.16-2.338-7.496-0.216-10.582,2.338c-6.776,5.61-8.628,13.397-9.251,21.653C417.505,96.802,417.384,98.276,417.526,99.725z"/>
	<path fill-rule="evenodd" clip-rule="evenodd" d="M400.667,35.906c-2.371,13.746-4.66,27.062-6.967,40.374
		c-2.163,12.471-4.773,24.885-6.321,37.431c-0.683,5.528-3.01,6.483-7.573,5.81c-1.003-0.148-2.072-0.163-3.069,0.004
		c-3.259,0.548-4.838-0.61-4.049-4.595c-5.669,3.997-11.434,5.452-17.815,5.58c-12.209,0.242-18.367-8.521-19.153-18.193
		c-0.975-11.994,2.328-23.019,10.248-32.146c7.506-8.652,20.633-12.328,31.912-6.958c2.112,1.006,2.473,0.78,2.841-1.452
		c1.263-7.653,2.914-15.243,4.093-22.907c0.345-2.236,0.965-3.051,3.201-2.984C392.104,35.994,396.2,35.906,400.667,35.906z
		 M359.708,110.682c4.449,0.778,11.259-4.104,13.513-9.981c2.176-5.67,3.172-11.663,3.689-17.675
		c0.485-5.645-2.191-10.412-6.638-12.009c-4.875-1.75-8.354,1.142-11.278,4.45c-5.291,5.985-7.516,13.184-7.633,21.086
		C351.409,104.154,354.736,109.812,359.708,110.682z"/>
	<path fill-rule="evenodd" clip-rule="evenodd" d="M619.707,93.139c-5.131,0-10.264,0.114-15.387-0.051
		c-2.305-0.076-2.783,0.645-3.004,2.918c-1.045,10.707,6.658,18.162,20.764,14.471c0.973-0.255,1.92-0.653,2.908-0.775
		c2.021-0.249,4.607-3.07,5.666,1.348c1.361,5.679,1.131,6.491-3.691,7.54c-9.107,1.98-18.225,3.208-27.418,0.243
		c-7.969-2.573-12.27-8.448-12.922-16.232c-1.16-13.848,3.17-25.964,13.85-35.392c8.541-7.538,26.707-8.713,33.602-1.97
		c5.369,5.25,6.727,11.903,5.723,18.727c-1.355,9.241-1.809,9.175-11.299,9.173C625.568,93.139,622.637,93.139,619.707,93.139z
		 M621.172,85.293c4.494,0.403,4.701-2.558,4.525-5.106c-0.158-2.273-0.621-4.744-2.121-6.894c-2.236-3.204-4.762-4.752-8.615-3.123
		c-6.496,2.745-9.605,8.162-11.939,14.997C609.516,85.167,615.385,84.774,621.172,85.293z"/>
	<path fill-rule="evenodd" clip-rule="evenodd" d="M501.115,93.14c-5.277-0.001-10.555,0.088-15.828-0.044
		c-2.09-0.052-2.564,0.612-2.771,2.69c-1.111,11.127,6.9,18.488,20.945,14.589c0.826-0.23,1.668-0.417,2.498-0.636
		c5.494-1.451,6.953-0.224,6.586,5.369c-0.102,1.516-0.52,2.252-2.137,2.719c-9.9,2.85-19.789,4.047-29.881,0.932
		c-7.551-2.331-12.24-8.873-12.762-16.372c-0.955-13.701,3.254-25.621,13.729-35.033c8.631-7.755,28.131-9.22,34.867-1.035
		c4.258,5.17,5.576,11.251,4.711,17.444c-1.314,9.434-1.715,9.377-11.605,9.377C506.682,93.14,503.898,93.14,501.115,93.14z
		 M502.52,85.293c4.729,0.424,4.277-2.764,4.379-5.282c0.078-1.898-0.787-3.913-1.537-5.752c-1.838-4.507-7.104-6.507-11.715-3.011
		c-4.555,3.452-7.885,7.816-9.172,13.92C490.629,85.167,496.615,84.766,502.52,85.293z"/>
	<path fill-rule="evenodd" clip-rule="evenodd" fill="#fff" d="M562.025,182.891h-14.813l5.188-21.889h15.25l-4,15.56
		L562.025,182.891z M559.275,180.764l4.313-17.255h-8.642l-4.233,17.255H559.275z"/>
	<path fill-rule="evenodd" clip-rule="evenodd" fill="#fff" d="M695.973,182.505H681.16l5.188-21.889h15.25l-4,15.56
		L695.973,182.505z M693.223,180.378l4.313-17.255h-8.642l-4.233,17.255H693.223z"/>
	<path fill-rule="evenodd" clip-rule="evenodd" fill="#fff" d="M474.568,183.006c-6.328,0.001-6.457,0.504-4.834-5.674
		c1.1-4.178,3.299-12.061,4.418-16.232c0,0,4.264-0.207,4.848-0.208c8.715,0,9.369,0.827,7.145,9.125
		c-0.447,1.669-0.943,3.326-1.404,4.992C482.672,182.47,482.391,183.004,474.568,183.006z M480.729,176.673
		c1.34-3.341,1.77-6.408,2.592-9.628c0.51-1.989,0.555-3.926-2.125-4.304c-2.037-0.285-4.039-0.475-4.715,2.378
		c-1.236,5.206-2.676,10.361-4.086,15.742C476.652,181.82,479.009,180.961,480.729,176.673z"/>
	<path fill-rule="evenodd" clip-rule="evenodd" fill="#fff" d="M340.088,160.892c-0.411,2.164-3.313,13.612-3.313,13.612
		l-10-0.13c0,0-2.013,7.729-2.313,8.687l-3.813,0.251l5.5-22.42H340.088z M334.55,171.33c0.83-2.593,1.288-5.307,1.832-7.983
		c0.029-0.147-0.604-0.602-0.926-0.617c-2.399-0.116-5.086-1.105-6.11,3.301c-0.57,2-1.053,3.865-1.772,6.356
		C327.573,172.387,333.936,173.246,334.55,171.33z"/>
</g>
<g id="Line">
	<path fill-rule="evenodd" clip-rule="evenodd" fill="#fff" d="M444.434,142.527c0.881-3.615,3.291-2.768,5.178-2.772
		c21.553-0.04,43.104-0.024,64.652-0.024c81.512,0,163.025-0.005,244.537,0.026c2.676,0,4.863-0.047,6.697-2.743
		c1.891-2.776,6.217-2.597,8.605-0.317c2.377,2.267,2.451,6.359,0.164,8.727c-2.484,2.567-6.732,2.797-8.826-0.176
		c-1.871-2.651-4.053-2.748-6.75-2.747c-102.916,0.032-205.832,0.027-308.744,0.027
		C448.207,142.527,446.467,142.527,444.434,142.527z"/>
	<path fill-rule="evenodd" clip-rule="evenodd" fill="#fff" d="M314.518,139.729c24.93,0,49.859-0.019,74.788,0.05
		c1.216,0.004,3.398-1.052,3.579,0.897c0.223,2.418-2.137,1.832-3.623,1.835c-50.298,0.021-100.597,0.022-150.896-0.006
		c-1.313-0.001-3.462,0.686-3.403-1.535c0.063-2.369,2.283-1.179,3.447-1.183C263.779,139.71,289.148,139.729,314.518,139.729z"/>
</g>
</svg>
